<svg width="12" height="12" viewBox="0 0 12 12" fill="none" xmlns="http://www.w3.org/2000/svg">
<path d="M11.0001 6.83167H6.83342V10.9983C6.83342 11.2193 6.74562 11.4313 6.58934 11.5876C6.43306 11.7439 6.2211 11.8317 6.00008 11.8317C5.77907 11.8317 5.56711 11.7439 5.41083 11.5876C5.25455 11.4313 5.16675 11.2193 5.16675 10.9983V6.83167H1.00008C0.779068 6.83167 0.567106 6.74387 0.410826 6.58759C0.254546 6.43131 0.166748 6.21935 0.166748 5.99833C0.166748 5.77732 0.254546 5.56536 0.410826 5.40908C0.567106 5.2528 0.779068 5.165 1.00008 5.165H5.16675V0.998334C5.16675 0.777321 5.25455 0.565359 5.41083 0.409078C5.56711 0.252798 5.77907 0.165001 6.00008 0.165001C6.2211 0.165001 6.43306 0.252798 6.58934 0.409078C6.74562 0.565359 6.83342 0.777321 6.83342 0.998334V5.165H11.0001C11.2211 5.165 11.4331 5.2528 11.5893 5.40908C11.7456 5.56536 11.8334 5.77732 11.8334 5.99833C11.8334 6.21935 11.7456 6.43131 11.5893 6.58759C11.4331 6.74387 11.2211 6.83167 11.0001 6.83167Z" fill="white"/>
</svg>
